<mxfile host="app.diagrams.net" modified="2022-08-18T03:09:52.110Z" agent="5.0 (Macintosh; Intel Mac OS X 10_15_7) AppleWebKit/537.36 (KHTML, like Gecko) Chrome/104.0.0.0 Safari/537.36" etag="q9Qeo_CT3zD5ZZb_eP_u" version="20.2.4" type="github">
  <diagram id="CEhHERqnVkYraUOetQR8" name="第 1 页">
    <mxGraphModel dx="883" dy="589" grid="1" gridSize="10" guides="1" tooltips="1" connect="1" arrows="1" fold="1" page="1" pageScale="1" pageWidth="827" pageHeight="1169" math="0" shadow="0">
      <root>
        <mxCell id="0" />
        <mxCell id="1" parent="0" />
        <mxCell id="UEkjU5cYx91M-_5c_535-78" value="req1" style="rounded=0;whiteSpace=wrap;html=1;" vertex="1" parent="1">
          <mxGeometry x="250" y="240" width="120" height="60" as="geometry" />
        </mxCell>
        <mxCell id="UEkjU5cYx91M-_5c_535-80" value="req2" style="rounded=0;whiteSpace=wrap;html=1;" vertex="1" parent="1">
          <mxGeometry x="250" y="300" width="120" height="60" as="geometry" />
        </mxCell>
        <mxCell id="UEkjU5cYx91M-_5c_535-81" value="req3" style="rounded=0;whiteSpace=wrap;html=1;" vertex="1" parent="1">
          <mxGeometry x="250" y="360" width="120" height="60" as="geometry" />
        </mxCell>
        <mxCell id="UEkjU5cYx91M-_5c_535-88" value="req4" style="rounded=0;whiteSpace=wrap;html=1;" vertex="1" parent="1">
          <mxGeometry x="250" y="420" width="120" height="60" as="geometry" />
        </mxCell>
        <mxCell id="UEkjU5cYx91M-_5c_535-89" value="req5" style="rounded=0;whiteSpace=wrap;html=1;" vertex="1" parent="1">
          <mxGeometry x="250" y="480" width="120" height="60" as="geometry" />
        </mxCell>
        <mxCell id="UEkjU5cYx91M-_5c_535-90" value="req6" style="rounded=0;whiteSpace=wrap;html=1;" vertex="1" parent="1">
          <mxGeometry x="250" y="540" width="120" height="60" as="geometry" />
        </mxCell>
        <mxCell id="UEkjU5cYx91M-_5c_535-91" value="req7" style="rounded=0;whiteSpace=wrap;html=1;" vertex="1" parent="1">
          <mxGeometry x="250" y="600" width="120" height="60" as="geometry" />
        </mxCell>
        <mxCell id="UEkjU5cYx91M-_5c_535-92" value="req8" style="rounded=0;whiteSpace=wrap;html=1;" vertex="1" parent="1">
          <mxGeometry x="250" y="660" width="120" height="60" as="geometry" />
        </mxCell>
        <mxCell id="UEkjU5cYx91M-_5c_535-93" value="req9" style="rounded=0;whiteSpace=wrap;html=1;" vertex="1" parent="1">
          <mxGeometry x="250" y="720" width="120" height="60" as="geometry" />
        </mxCell>
        <mxCell id="UEkjU5cYx91M-_5c_535-94" value="req10" style="rounded=0;whiteSpace=wrap;html=1;" vertex="1" parent="1">
          <mxGeometry x="250" y="780" width="120" height="60" as="geometry" />
        </mxCell>
        <mxCell id="UEkjU5cYx91M-_5c_535-95" value="req11" style="rounded=0;whiteSpace=wrap;html=1;" vertex="1" parent="1">
          <mxGeometry x="250" y="840" width="120" height="60" as="geometry" />
        </mxCell>
        <mxCell id="UEkjU5cYx91M-_5c_535-96" value="req12" style="rounded=0;whiteSpace=wrap;html=1;" vertex="1" parent="1">
          <mxGeometry x="250" y="900" width="120" height="60" as="geometry" />
        </mxCell>
        <mxCell id="UEkjU5cYx91M-_5c_535-97" value="" style="endArrow=block;html=1;rounded=0;fillColor=#FF0000;endFill=0;strokeColor=#FF0000;shape=flexArrow;width=12;endSize=15;" edge="1" parent="1">
          <mxGeometry width="50" height="50" relative="1" as="geometry">
            <mxPoint x="190" y="240" as="sourcePoint" />
            <mxPoint x="190" y="962" as="targetPoint" />
          </mxGeometry>
        </mxCell>
        <mxCell id="UEkjU5cYx91M-_5c_535-99" value="" style="shape=partialRectangle;whiteSpace=wrap;html=1;left=0;right=0;fillColor=none;" vertex="1" parent="1">
          <mxGeometry x="450" y="245" width="660" height="50" as="geometry" />
        </mxCell>
        <mxCell id="UEkjU5cYx91M-_5c_535-100" value="resp11" style="rounded=0;whiteSpace=wrap;html=1;" vertex="1" parent="1">
          <mxGeometry x="470" y="250" width="70" height="40" as="geometry" />
        </mxCell>
        <mxCell id="UEkjU5cYx91M-_5c_535-101" value="resp12" style="rounded=0;whiteSpace=wrap;html=1;" vertex="1" parent="1">
          <mxGeometry x="550" y="250" width="70" height="40" as="geometry" />
        </mxCell>
        <mxCell id="UEkjU5cYx91M-_5c_535-102" value="resp13" style="rounded=0;whiteSpace=wrap;html=1;" vertex="1" parent="1">
          <mxGeometry x="630" y="250" width="70" height="40" as="geometry" />
        </mxCell>
        <mxCell id="UEkjU5cYx91M-_5c_535-103" value="resp14" style="rounded=0;whiteSpace=wrap;html=1;" vertex="1" parent="1">
          <mxGeometry x="710" y="250" width="70" height="40" as="geometry" />
        </mxCell>
        <mxCell id="UEkjU5cYx91M-_5c_535-104" value="" style="ellipse;whiteSpace=wrap;html=1;aspect=fixed;" vertex="1" parent="1">
          <mxGeometry x="991" y="262.5" width="15" height="15" as="geometry" />
        </mxCell>
        <mxCell id="UEkjU5cYx91M-_5c_535-105" value="" style="ellipse;whiteSpace=wrap;html=1;aspect=fixed;" vertex="1" parent="1">
          <mxGeometry x="1031" y="262.5" width="15" height="15" as="geometry" />
        </mxCell>
        <mxCell id="UEkjU5cYx91M-_5c_535-106" value="" style="ellipse;whiteSpace=wrap;html=1;aspect=fixed;" vertex="1" parent="1">
          <mxGeometry x="951" y="262.5" width="15" height="15" as="geometry" />
        </mxCell>
        <mxCell id="UEkjU5cYx91M-_5c_535-109" value="resp15" style="rounded=0;whiteSpace=wrap;html=1;" vertex="1" parent="1">
          <mxGeometry x="790" y="250" width="70" height="40" as="geometry" />
        </mxCell>
        <mxCell id="UEkjU5cYx91M-_5c_535-114" value="resp16" style="rounded=0;whiteSpace=wrap;html=1;" vertex="1" parent="1">
          <mxGeometry x="870" y="250" width="70" height="40" as="geometry" />
        </mxCell>
        <mxCell id="UEkjU5cYx91M-_5c_535-115" value="" style="endArrow=block;html=1;rounded=0;fillColor=#3399FF;endFill=0;strokeColor=#3399FF;shape=flexArrow;width=12;endSize=15;" edge="1" parent="1">
          <mxGeometry width="50" height="50" relative="1" as="geometry">
            <mxPoint x="450" y="198" as="sourcePoint" />
            <mxPoint x="1110" y="198" as="targetPoint" />
          </mxGeometry>
        </mxCell>
        <mxCell id="UEkjU5cYx91M-_5c_535-116" value="" style="shape=partialRectangle;whiteSpace=wrap;html=1;left=0;right=0;fillColor=none;" vertex="1" parent="1">
          <mxGeometry x="450" y="305" width="660" height="50" as="geometry" />
        </mxCell>
        <mxCell id="UEkjU5cYx91M-_5c_535-117" value="resp11" style="rounded=0;whiteSpace=wrap;html=1;" vertex="1" parent="1">
          <mxGeometry x="470" y="310" width="70" height="40" as="geometry" />
        </mxCell>
        <mxCell id="UEkjU5cYx91M-_5c_535-118" value="resp12" style="rounded=0;whiteSpace=wrap;html=1;" vertex="1" parent="1">
          <mxGeometry x="550" y="310" width="70" height="40" as="geometry" />
        </mxCell>
        <mxCell id="UEkjU5cYx91M-_5c_535-119" value="resp13" style="rounded=0;whiteSpace=wrap;html=1;" vertex="1" parent="1">
          <mxGeometry x="630" y="310" width="70" height="40" as="geometry" />
        </mxCell>
        <mxCell id="UEkjU5cYx91M-_5c_535-120" value="resp14" style="rounded=0;whiteSpace=wrap;html=1;" vertex="1" parent="1">
          <mxGeometry x="710" y="310" width="70" height="40" as="geometry" />
        </mxCell>
        <mxCell id="UEkjU5cYx91M-_5c_535-121" value="" style="ellipse;whiteSpace=wrap;html=1;aspect=fixed;" vertex="1" parent="1">
          <mxGeometry x="991" y="322.5" width="15" height="15" as="geometry" />
        </mxCell>
        <mxCell id="UEkjU5cYx91M-_5c_535-122" value="" style="ellipse;whiteSpace=wrap;html=1;aspect=fixed;" vertex="1" parent="1">
          <mxGeometry x="1031" y="322.5" width="15" height="15" as="geometry" />
        </mxCell>
        <mxCell id="UEkjU5cYx91M-_5c_535-123" value="" style="ellipse;whiteSpace=wrap;html=1;aspect=fixed;" vertex="1" parent="1">
          <mxGeometry x="951" y="322.5" width="15" height="15" as="geometry" />
        </mxCell>
        <mxCell id="UEkjU5cYx91M-_5c_535-124" value="resp15" style="rounded=0;whiteSpace=wrap;html=1;" vertex="1" parent="1">
          <mxGeometry x="790" y="310" width="70" height="40" as="geometry" />
        </mxCell>
        <mxCell id="UEkjU5cYx91M-_5c_535-126" value="" style="shape=partialRectangle;whiteSpace=wrap;html=1;left=0;right=0;fillColor=none;" vertex="1" parent="1">
          <mxGeometry x="450" y="365" width="660" height="50" as="geometry" />
        </mxCell>
        <mxCell id="UEkjU5cYx91M-_5c_535-127" value="resp11" style="rounded=0;whiteSpace=wrap;html=1;" vertex="1" parent="1">
          <mxGeometry x="470" y="370" width="70" height="40" as="geometry" />
        </mxCell>
        <mxCell id="UEkjU5cYx91M-_5c_535-128" value="resp12" style="rounded=0;whiteSpace=wrap;html=1;" vertex="1" parent="1">
          <mxGeometry x="550" y="370" width="70" height="40" as="geometry" />
        </mxCell>
        <mxCell id="UEkjU5cYx91M-_5c_535-131" value="" style="ellipse;whiteSpace=wrap;html=1;aspect=fixed;" vertex="1" parent="1">
          <mxGeometry x="991" y="382.5" width="15" height="15" as="geometry" />
        </mxCell>
        <mxCell id="UEkjU5cYx91M-_5c_535-132" value="" style="ellipse;whiteSpace=wrap;html=1;aspect=fixed;" vertex="1" parent="1">
          <mxGeometry x="1031" y="382.5" width="15" height="15" as="geometry" />
        </mxCell>
        <mxCell id="UEkjU5cYx91M-_5c_535-133" value="" style="ellipse;whiteSpace=wrap;html=1;aspect=fixed;" vertex="1" parent="1">
          <mxGeometry x="951" y="382.5" width="15" height="15" as="geometry" />
        </mxCell>
        <mxCell id="UEkjU5cYx91M-_5c_535-136" value="" style="shape=partialRectangle;whiteSpace=wrap;html=1;left=0;right=0;fillColor=none;" vertex="1" parent="1">
          <mxGeometry x="450" y="425" width="660" height="50" as="geometry" />
        </mxCell>
        <mxCell id="UEkjU5cYx91M-_5c_535-137" value="resp11" style="rounded=0;whiteSpace=wrap;html=1;" vertex="1" parent="1">
          <mxGeometry x="470" y="430" width="70" height="40" as="geometry" />
        </mxCell>
        <mxCell id="UEkjU5cYx91M-_5c_535-138" value="resp12" style="rounded=0;whiteSpace=wrap;html=1;" vertex="1" parent="1">
          <mxGeometry x="550" y="430" width="70" height="40" as="geometry" />
        </mxCell>
        <mxCell id="UEkjU5cYx91M-_5c_535-139" value="resp13" style="rounded=0;whiteSpace=wrap;html=1;" vertex="1" parent="1">
          <mxGeometry x="630" y="430" width="70" height="40" as="geometry" />
        </mxCell>
        <mxCell id="UEkjU5cYx91M-_5c_535-140" value="resp14" style="rounded=0;whiteSpace=wrap;html=1;" vertex="1" parent="1">
          <mxGeometry x="710" y="430" width="70" height="40" as="geometry" />
        </mxCell>
        <mxCell id="UEkjU5cYx91M-_5c_535-141" value="" style="ellipse;whiteSpace=wrap;html=1;aspect=fixed;" vertex="1" parent="1">
          <mxGeometry x="991" y="442.5" width="15" height="15" as="geometry" />
        </mxCell>
        <mxCell id="UEkjU5cYx91M-_5c_535-142" value="" style="ellipse;whiteSpace=wrap;html=1;aspect=fixed;" vertex="1" parent="1">
          <mxGeometry x="1031" y="442.5" width="15" height="15" as="geometry" />
        </mxCell>
        <mxCell id="UEkjU5cYx91M-_5c_535-143" value="" style="ellipse;whiteSpace=wrap;html=1;aspect=fixed;" vertex="1" parent="1">
          <mxGeometry x="951" y="442.5" width="15" height="15" as="geometry" />
        </mxCell>
        <mxCell id="UEkjU5cYx91M-_5c_535-144" value="resp15" style="rounded=0;whiteSpace=wrap;html=1;" vertex="1" parent="1">
          <mxGeometry x="790" y="430" width="70" height="40" as="geometry" />
        </mxCell>
        <mxCell id="UEkjU5cYx91M-_5c_535-145" value="resp16" style="rounded=0;whiteSpace=wrap;html=1;" vertex="1" parent="1">
          <mxGeometry x="870" y="430" width="70" height="40" as="geometry" />
        </mxCell>
        <mxCell id="UEkjU5cYx91M-_5c_535-156" value="" style="shape=partialRectangle;whiteSpace=wrap;html=1;left=0;right=0;fillColor=none;" vertex="1" parent="1">
          <mxGeometry x="450" y="485" width="660" height="50" as="geometry" />
        </mxCell>
        <mxCell id="UEkjU5cYx91M-_5c_535-157" value="resp11" style="rounded=0;whiteSpace=wrap;html=1;" vertex="1" parent="1">
          <mxGeometry x="470" y="490" width="70" height="40" as="geometry" />
        </mxCell>
        <mxCell id="UEkjU5cYx91M-_5c_535-161" value="" style="ellipse;whiteSpace=wrap;html=1;aspect=fixed;" vertex="1" parent="1">
          <mxGeometry x="991" y="502.5" width="15" height="15" as="geometry" />
        </mxCell>
        <mxCell id="UEkjU5cYx91M-_5c_535-162" value="" style="ellipse;whiteSpace=wrap;html=1;aspect=fixed;" vertex="1" parent="1">
          <mxGeometry x="1031" y="502.5" width="15" height="15" as="geometry" />
        </mxCell>
        <mxCell id="UEkjU5cYx91M-_5c_535-163" value="" style="ellipse;whiteSpace=wrap;html=1;aspect=fixed;" vertex="1" parent="1">
          <mxGeometry x="951" y="502.5" width="15" height="15" as="geometry" />
        </mxCell>
        <mxCell id="UEkjU5cYx91M-_5c_535-196" value="" style="shape=partialRectangle;whiteSpace=wrap;html=1;left=0;right=0;fillColor=none;" vertex="1" parent="1">
          <mxGeometry x="450" y="545" width="660" height="50" as="geometry" />
        </mxCell>
        <mxCell id="UEkjU5cYx91M-_5c_535-201" value="" style="ellipse;whiteSpace=wrap;html=1;aspect=fixed;" vertex="1" parent="1">
          <mxGeometry x="991" y="562.5" width="15" height="15" as="geometry" />
        </mxCell>
        <mxCell id="UEkjU5cYx91M-_5c_535-202" value="" style="ellipse;whiteSpace=wrap;html=1;aspect=fixed;" vertex="1" parent="1">
          <mxGeometry x="1031" y="562.5" width="15" height="15" as="geometry" />
        </mxCell>
        <mxCell id="UEkjU5cYx91M-_5c_535-203" value="" style="ellipse;whiteSpace=wrap;html=1;aspect=fixed;" vertex="1" parent="1">
          <mxGeometry x="951" y="562.5" width="15" height="15" as="geometry" />
        </mxCell>
        <mxCell id="UEkjU5cYx91M-_5c_535-206" value="" style="shape=partialRectangle;whiteSpace=wrap;html=1;left=0;right=0;fillColor=none;" vertex="1" parent="1">
          <mxGeometry x="450" y="605" width="660" height="50" as="geometry" />
        </mxCell>
        <mxCell id="UEkjU5cYx91M-_5c_535-211" value="" style="ellipse;whiteSpace=wrap;html=1;aspect=fixed;" vertex="1" parent="1">
          <mxGeometry x="991" y="622.5" width="15" height="15" as="geometry" />
        </mxCell>
        <mxCell id="UEkjU5cYx91M-_5c_535-212" value="" style="ellipse;whiteSpace=wrap;html=1;aspect=fixed;" vertex="1" parent="1">
          <mxGeometry x="1031" y="622.5" width="15" height="15" as="geometry" />
        </mxCell>
        <mxCell id="UEkjU5cYx91M-_5c_535-213" value="" style="ellipse;whiteSpace=wrap;html=1;aspect=fixed;" vertex="1" parent="1">
          <mxGeometry x="951" y="622.5" width="15" height="15" as="geometry" />
        </mxCell>
        <mxCell id="UEkjU5cYx91M-_5c_535-217" value="resp11" style="rounded=0;whiteSpace=wrap;html=1;" vertex="1" parent="1">
          <mxGeometry x="470" y="670" width="70" height="40" as="geometry" />
        </mxCell>
        <mxCell id="UEkjU5cYx91M-_5c_535-221" value="" style="ellipse;whiteSpace=wrap;html=1;aspect=fixed;" vertex="1" parent="1">
          <mxGeometry x="991" y="682.5" width="15" height="15" as="geometry" />
        </mxCell>
        <mxCell id="UEkjU5cYx91M-_5c_535-222" value="" style="ellipse;whiteSpace=wrap;html=1;aspect=fixed;" vertex="1" parent="1">
          <mxGeometry x="1031" y="682.5" width="15" height="15" as="geometry" />
        </mxCell>
        <mxCell id="UEkjU5cYx91M-_5c_535-223" value="" style="ellipse;whiteSpace=wrap;html=1;aspect=fixed;" vertex="1" parent="1">
          <mxGeometry x="951" y="682.5" width="15" height="15" as="geometry" />
        </mxCell>
        <mxCell id="UEkjU5cYx91M-_5c_535-226" value="" style="shape=partialRectangle;whiteSpace=wrap;html=1;left=0;right=0;fillColor=none;" vertex="1" parent="1">
          <mxGeometry x="450" y="725" width="660" height="50" as="geometry" />
        </mxCell>
        <mxCell id="UEkjU5cYx91M-_5c_535-231" value="" style="ellipse;whiteSpace=wrap;html=1;aspect=fixed;" vertex="1" parent="1">
          <mxGeometry x="991" y="742.5" width="15" height="15" as="geometry" />
        </mxCell>
        <mxCell id="UEkjU5cYx91M-_5c_535-232" value="" style="ellipse;whiteSpace=wrap;html=1;aspect=fixed;" vertex="1" parent="1">
          <mxGeometry x="1031" y="742.5" width="15" height="15" as="geometry" />
        </mxCell>
        <mxCell id="UEkjU5cYx91M-_5c_535-233" value="" style="ellipse;whiteSpace=wrap;html=1;aspect=fixed;" vertex="1" parent="1">
          <mxGeometry x="951" y="742.5" width="15" height="15" as="geometry" />
        </mxCell>
        <mxCell id="UEkjU5cYx91M-_5c_535-236" value="" style="shape=partialRectangle;whiteSpace=wrap;html=1;left=0;right=0;fillColor=none;" vertex="1" parent="1">
          <mxGeometry x="450" y="785" width="660" height="50" as="geometry" />
        </mxCell>
        <mxCell id="UEkjU5cYx91M-_5c_535-237" value="resp11" style="rounded=0;whiteSpace=wrap;html=1;" vertex="1" parent="1">
          <mxGeometry x="470" y="790" width="70" height="40" as="geometry" />
        </mxCell>
        <mxCell id="UEkjU5cYx91M-_5c_535-238" value="resp12" style="rounded=0;whiteSpace=wrap;html=1;" vertex="1" parent="1">
          <mxGeometry x="550" y="790" width="70" height="40" as="geometry" />
        </mxCell>
        <mxCell id="UEkjU5cYx91M-_5c_535-239" value="resp13" style="rounded=0;whiteSpace=wrap;html=1;" vertex="1" parent="1">
          <mxGeometry x="630" y="790" width="70" height="40" as="geometry" />
        </mxCell>
        <mxCell id="UEkjU5cYx91M-_5c_535-241" value="" style="ellipse;whiteSpace=wrap;html=1;aspect=fixed;" vertex="1" parent="1">
          <mxGeometry x="991" y="802.5" width="15" height="15" as="geometry" />
        </mxCell>
        <mxCell id="UEkjU5cYx91M-_5c_535-242" value="" style="ellipse;whiteSpace=wrap;html=1;aspect=fixed;" vertex="1" parent="1">
          <mxGeometry x="1031" y="802.5" width="15" height="15" as="geometry" />
        </mxCell>
        <mxCell id="UEkjU5cYx91M-_5c_535-243" value="" style="ellipse;whiteSpace=wrap;html=1;aspect=fixed;" vertex="1" parent="1">
          <mxGeometry x="951" y="802.5" width="15" height="15" as="geometry" />
        </mxCell>
        <mxCell id="UEkjU5cYx91M-_5c_535-246" value="" style="shape=partialRectangle;whiteSpace=wrap;html=1;left=0;right=0;fillColor=none;" vertex="1" parent="1">
          <mxGeometry x="450" y="850" width="660" height="50" as="geometry" />
        </mxCell>
        <mxCell id="UEkjU5cYx91M-_5c_535-251" value="" style="ellipse;whiteSpace=wrap;html=1;aspect=fixed;" vertex="1" parent="1">
          <mxGeometry x="991" y="867.5" width="15" height="15" as="geometry" />
        </mxCell>
        <mxCell id="UEkjU5cYx91M-_5c_535-252" value="" style="ellipse;whiteSpace=wrap;html=1;aspect=fixed;" vertex="1" parent="1">
          <mxGeometry x="1031" y="867.5" width="15" height="15" as="geometry" />
        </mxCell>
        <mxCell id="UEkjU5cYx91M-_5c_535-253" value="" style="ellipse;whiteSpace=wrap;html=1;aspect=fixed;" vertex="1" parent="1">
          <mxGeometry x="951" y="867.5" width="15" height="15" as="geometry" />
        </mxCell>
        <mxCell id="UEkjU5cYx91M-_5c_535-266" value="" style="shape=partialRectangle;whiteSpace=wrap;html=1;left=0;right=0;fillColor=none;" vertex="1" parent="1">
          <mxGeometry x="450" y="910" width="660" height="50" as="geometry" />
        </mxCell>
        <mxCell id="UEkjU5cYx91M-_5c_535-267" value="resp11" style="rounded=0;whiteSpace=wrap;html=1;" vertex="1" parent="1">
          <mxGeometry x="470" y="915" width="70" height="40" as="geometry" />
        </mxCell>
        <mxCell id="UEkjU5cYx91M-_5c_535-268" value="resp12" style="rounded=0;whiteSpace=wrap;html=1;" vertex="1" parent="1">
          <mxGeometry x="550" y="915" width="70" height="40" as="geometry" />
        </mxCell>
        <mxCell id="UEkjU5cYx91M-_5c_535-269" value="resp13" style="rounded=0;whiteSpace=wrap;html=1;" vertex="1" parent="1">
          <mxGeometry x="630" y="915" width="70" height="40" as="geometry" />
        </mxCell>
        <mxCell id="UEkjU5cYx91M-_5c_535-270" value="resp14" style="rounded=0;whiteSpace=wrap;html=1;" vertex="1" parent="1">
          <mxGeometry x="710" y="915" width="70" height="40" as="geometry" />
        </mxCell>
        <mxCell id="UEkjU5cYx91M-_5c_535-271" value="" style="ellipse;whiteSpace=wrap;html=1;aspect=fixed;" vertex="1" parent="1">
          <mxGeometry x="991" y="927.5" width="15" height="15" as="geometry" />
        </mxCell>
        <mxCell id="UEkjU5cYx91M-_5c_535-272" value="" style="ellipse;whiteSpace=wrap;html=1;aspect=fixed;" vertex="1" parent="1">
          <mxGeometry x="1031" y="927.5" width="15" height="15" as="geometry" />
        </mxCell>
        <mxCell id="UEkjU5cYx91M-_5c_535-273" value="" style="ellipse;whiteSpace=wrap;html=1;aspect=fixed;" vertex="1" parent="1">
          <mxGeometry x="951" y="927.5" width="15" height="15" as="geometry" />
        </mxCell>
        <mxCell id="UEkjU5cYx91M-_5c_535-274" value="resp15" style="rounded=0;whiteSpace=wrap;html=1;" vertex="1" parent="1">
          <mxGeometry x="790" y="915" width="70" height="40" as="geometry" />
        </mxCell>
      </root>
    </mxGraphModel>
  </diagram>
</mxfile>
